<mxfile host="app.diagrams.net" modified="2023-09-14T17:28:23.658Z" agent="Mozilla/5.0 (Windows NT 10.0; Win64; x64) AppleWebKit/537.36 (KHTML, like Gecko) Chrome/115.0.0.0 Safari/537.36" etag="zSV7_9eaW5j2fp0ALJhO" version="21.7.5" type="google">
  <diagram name="Страница — 1" id="AFXR0qigD5UZiXk84t3W">
    <mxGraphModel grid="1" page="1" gridSize="10" guides="1" tooltips="1" connect="1" arrows="1" fold="1" pageScale="1" pageWidth="827" pageHeight="1169" math="0" shadow="0">
      <root>
        <mxCell id="0" />
        <mxCell id="1" parent="0" />
        <mxCell id="ZTn7rKm0J42uoG-Sm6Nk-2" style="edgeStyle=orthogonalEdgeStyle;rounded=0;orthogonalLoop=1;jettySize=auto;html=1;exitX=0;exitY=0.5;exitDx=0;exitDy=0;entryX=1;entryY=0.5;entryDx=0;entryDy=0;" edge="1" parent="1" source="u3lnLo-BMqeugsVrdL9a-1" target="u3lnLo-BMqeugsVrdL9a-3">
          <mxGeometry relative="1" as="geometry" />
        </mxCell>
        <mxCell id="ZTn7rKm0J42uoG-Sm6Nk-3" style="edgeStyle=orthogonalEdgeStyle;rounded=0;orthogonalLoop=1;jettySize=auto;html=1;exitX=0.5;exitY=0;exitDx=0;exitDy=0;" edge="1" parent="1" source="u3lnLo-BMqeugsVrdL9a-1" target="u3lnLo-BMqeugsVrdL9a-17">
          <mxGeometry relative="1" as="geometry" />
        </mxCell>
        <mxCell id="ZTn7rKm0J42uoG-Sm6Nk-4" style="edgeStyle=orthogonalEdgeStyle;rounded=0;orthogonalLoop=1;jettySize=auto;html=1;exitX=1;exitY=0.5;exitDx=0;exitDy=0;entryX=0;entryY=0.5;entryDx=0;entryDy=0;" edge="1" parent="1" source="u3lnLo-BMqeugsVrdL9a-1" target="u3lnLo-BMqeugsVrdL9a-4">
          <mxGeometry relative="1" as="geometry" />
        </mxCell>
        <mxCell id="ZTn7rKm0J42uoG-Sm6Nk-5" style="edgeStyle=orthogonalEdgeStyle;rounded=0;orthogonalLoop=1;jettySize=auto;html=1;exitX=0.5;exitY=1;exitDx=0;exitDy=0;entryX=0.5;entryY=0;entryDx=0;entryDy=0;" edge="1" parent="1" source="u3lnLo-BMqeugsVrdL9a-1" target="u3lnLo-BMqeugsVrdL9a-16">
          <mxGeometry relative="1" as="geometry" />
        </mxCell>
        <mxCell id="ZTn7rKm0J42uoG-Sm6Nk-7" style="edgeStyle=orthogonalEdgeStyle;rounded=0;orthogonalLoop=1;jettySize=auto;html=1;exitX=1;exitY=1;exitDx=0;exitDy=0;entryX=-0.007;entryY=0.657;entryDx=0;entryDy=0;entryPerimeter=0;" edge="1" parent="1" source="u3lnLo-BMqeugsVrdL9a-1" target="ZTn7rKm0J42uoG-Sm6Nk-1">
          <mxGeometry relative="1" as="geometry" />
        </mxCell>
        <mxCell id="ZTn7rKm0J42uoG-Sm6Nk-8" style="edgeStyle=orthogonalEdgeStyle;rounded=0;orthogonalLoop=1;jettySize=auto;html=1;exitX=0;exitY=1;exitDx=0;exitDy=0;" edge="1" parent="1" source="u3lnLo-BMqeugsVrdL9a-1" target="ZTn7rKm0J42uoG-Sm6Nk-9">
          <mxGeometry relative="1" as="geometry">
            <mxPoint x="270" y="360" as="targetPoint" />
          </mxGeometry>
        </mxCell>
        <mxCell id="u3lnLo-BMqeugsVrdL9a-1" value="Программная&lt;br&gt;инженерия" style="ellipse;whiteSpace=wrap;html=1;" vertex="1" parent="1">
          <mxGeometry x="320" y="170" width="140" height="70" as="geometry" />
        </mxCell>
        <mxCell id="u3lnLo-BMqeugsVrdL9a-11" style="edgeStyle=orthogonalEdgeStyle;rounded=0;orthogonalLoop=1;jettySize=auto;html=1;exitX=1;exitY=1;exitDx=0;exitDy=0;entryX=0.5;entryY=0;entryDx=0;entryDy=0;" edge="1" parent="1" source="u3lnLo-BMqeugsVrdL9a-3" target="u3lnLo-BMqeugsVrdL9a-8">
          <mxGeometry relative="1" as="geometry" />
        </mxCell>
        <mxCell id="u3lnLo-BMqeugsVrdL9a-14" style="edgeStyle=orthogonalEdgeStyle;rounded=0;orthogonalLoop=1;jettySize=auto;html=1;exitX=0.5;exitY=1;exitDx=0;exitDy=0;entryX=0.5;entryY=0;entryDx=0;entryDy=0;" edge="1" parent="1" source="u3lnLo-BMqeugsVrdL9a-3" target="u3lnLo-BMqeugsVrdL9a-10">
          <mxGeometry relative="1" as="geometry" />
        </mxCell>
        <mxCell id="u3lnLo-BMqeugsVrdL9a-15" style="edgeStyle=orthogonalEdgeStyle;rounded=0;orthogonalLoop=1;jettySize=auto;html=1;exitX=0;exitY=1;exitDx=0;exitDy=0;entryX=0.5;entryY=0;entryDx=0;entryDy=0;" edge="1" parent="1" source="u3lnLo-BMqeugsVrdL9a-3" target="u3lnLo-BMqeugsVrdL9a-9">
          <mxGeometry relative="1" as="geometry" />
        </mxCell>
        <mxCell id="u3lnLo-BMqeugsVrdL9a-3" value="Изучение языков" style="ellipse;whiteSpace=wrap;html=1;fillColor=#e1d5e7;strokeColor=#9673a6;" vertex="1" parent="1">
          <mxGeometry x="25" y="170" width="140" height="70" as="geometry" />
        </mxCell>
        <mxCell id="u3lnLo-BMqeugsVrdL9a-4" value="Написание&amp;nbsp;&lt;br&gt;хорошего&lt;br&gt;кода" style="ellipse;whiteSpace=wrap;html=1;fillColor=#f8cecc;strokeColor=#b85450;" vertex="1" parent="1">
          <mxGeometry x="620" y="170" width="140" height="70" as="geometry" />
        </mxCell>
        <mxCell id="u3lnLo-BMqeugsVrdL9a-8" value="Java" style="ellipse;whiteSpace=wrap;html=1;fillColor=#e1d5e7;strokeColor=#9673a6;" vertex="1" parent="1">
          <mxGeometry x="140" y="280" width="90" height="50" as="geometry" />
        </mxCell>
        <mxCell id="u3lnLo-BMqeugsVrdL9a-9" value="С" style="ellipse;whiteSpace=wrap;html=1;fillColor=#e1d5e7;strokeColor=#9673a6;" vertex="1" parent="1">
          <mxGeometry x="-40" y="280" width="90" height="50" as="geometry" />
        </mxCell>
        <mxCell id="u3lnLo-BMqeugsVrdL9a-10" value="Python" style="ellipse;whiteSpace=wrap;html=1;fillColor=#e1d5e7;strokeColor=#9673a6;" vertex="1" parent="1">
          <mxGeometry x="50" y="280" width="90" height="50" as="geometry" />
        </mxCell>
        <mxCell id="u3lnLo-BMqeugsVrdL9a-16" value="Разработка&amp;nbsp;&lt;br&gt;ПО" style="ellipse;whiteSpace=wrap;html=1;fillColor=#ffe6cc;strokeColor=#d79b00;" vertex="1" parent="1">
          <mxGeometry x="320" y="360" width="140" height="70" as="geometry" />
        </mxCell>
        <mxCell id="u3lnLo-BMqeugsVrdL9a-17" value="Управление&lt;br&gt;проектами" style="ellipse;whiteSpace=wrap;html=1;fillColor=#dae8fc;strokeColor=#6c8ebf;" vertex="1" parent="1">
          <mxGeometry x="320" y="-20" width="140" height="70" as="geometry" />
        </mxCell>
        <mxCell id="ZTn7rKm0J42uoG-Sm6Nk-1" value="Информационная&lt;br&gt;безопасность" style="ellipse;whiteSpace=wrap;html=1;fillColor=#d5e8d4;strokeColor=#82b366;" vertex="1" parent="1">
          <mxGeometry x="620" y="360" width="140" height="70" as="geometry" />
        </mxCell>
        <mxCell id="ZTn7rKm0J42uoG-Sm6Nk-9" value="Разработка&lt;br&gt;приложений" style="ellipse;whiteSpace=wrap;html=1;fillColor=#ffe6cc;strokeColor=#d79b00;" vertex="1" parent="1">
          <mxGeometry x="165" y="360" width="140" height="70" as="geometry" />
        </mxCell>
      </root>
    </mxGraphModel>
  </diagram>
</mxfile>
